SplineFontDB: 3.0
FontName: General
FullName: General
FamilyName: General
Weight: Regular
Copyright: Copyright (c) 2014, Elsa Martin
UComments: "2014-7-26: Created with FontForge (http://fontforge.org)" 
FontLog: "First version" 
Version: 001.000
ItalicAngle: 0
UnderlinePosition: -100
UnderlineWidth: 50
Ascent: 800
Descent: 200
LayerCount: 2
Layer: 0 0 "Back"  1
Layer: 1 0 "Fore"  0
XUID: [1021 919 43484335 12110503]
FSType: 0
OS2Version: 0
OS2_WeightWidthSlopeOnly: 0
OS2_UseTypoMetrics: 1
CreationTime: 1406403418
ModificationTime: 1406472442
OS2TypoAscent: 0
OS2TypoAOffset: 1
OS2TypoDescent: 0
OS2TypoDOffset: 1
OS2TypoLinegap: 90
OS2WinAscent: 0
OS2WinAOffset: 1
OS2WinDescent: 0
OS2WinDOffset: 1
HheadAscent: 0
HheadAOffset: 1
HheadDescent: 0
HheadDOffset: 1
MarkAttachClasses: 1
DEI: 91125
Encoding: ISO8859-1
UnicodeInterp: none
NameList: AGL For New Fonts
DisplaySize: -48
AntiAlias: 1
FitToEm: 1
WinInfo: 114 19 8
BeginPrivate: 0
EndPrivate
Grid
-395.999988198 1300 m 0
 -395.999988198 -700 l 1024
  Named: "o" 
EndSplineSet
BeginChars: 256 52

StartChar: A
Encoding: 65 65 0
Width: 666
VWidth: -6876
Flags: W
HStem: -200 21G<0 171.667 495 666.667> -200 21G<0 171.667 495 666.667> -33.333 166.666<250 416.667> 780 20G<245 423.368>
LayerCount: 2
Fore
SplineSet
250 800 m 1xb0
 418.40234375 800 l 1
 666.666992188 -200 l 1
 500 -200 l 1
 458.333007812 -33.3330078125 l 1
 208.333007812 -33.3330078125 l 1
 166.666992188 -200 l 1
 0 -200 l 1
 250 800 l 1xb0
333.333007812 425 m 1
 250 133.333007812 l 1
 416.666992188 133.333007812 l 1
 333.333007812 425 l 1
EndSplineSet
Validated: 524289
EndChar

StartChar: B
Encoding: 66 66 1
Width: 717
VWidth: -6876
Flags: W
HStem: -200 166.667<166.667 416.667> 216.667 166.666<166.667 416.667> 633.333 166.667<166.667 416.667>
VStem: 0 166.667<-33.333 216.667 383.333 633.333> 416.667 166.666<-33.333 216.667 383.333 633.333>
LayerCount: 2
Fore
SplineSet
0 800 m 1
 500 800 l 1
 583.333007812 716.666992188 l 1
 583.333007812 383.333007812 l 1
 500 300 l 1
 583.333007812 216.666992188 l 1
 583.333007812 -116.666992188 l 1
 500 -200 l 1
 0 -200 l 1
 0 800 l 1
166.666992188 633.333007812 m 1
 166.666992188 383.333007812 l 1
 416.666992188 383.333007812 l 1
 416.666992188 633.333007812 l 1
 166.666992188 633.333007812 l 1
166.666992188 216.666992188 m 1
 166.666992188 -33.3330078125 l 1
 416.666992188 -33.3330078125 l 1
 416.666992188 216.666992188 l 1
 166.666992188 216.666992188 l 1
EndSplineSet
Validated: 524289
EndChar

StartChar: C
Encoding: 67 67 2
Width: 769
VWidth: -6876
Flags: W
HStem: -200 166.667<166.667 500> 633.333 166.667<166.667 500>
VStem: 0 166.667<-33.333 633.333> 500 166.667<-33.333 50 550 633.333>
LayerCount: 2
Fore
SplineSet
82.46484375 800 m 1
 593.315429688 800 l 1
 666.666992188 716.666992188 l 1
 666.666992188 550 l 1
 500 550 l 1
 500 633.333007812 l 1
 166.666992188 633.333007812 l 1
 166.666992188 -33.3330078125 l 1
 500 -33.3330078125 l 1
 500 50 l 1
 666.666992188 50 l 1
 666.666992188 -33.3330078125 l 1
 666.666992188 -116.666992188 l 1
 583.333007812 -200 l 1
 83.3330078125 -200 l 1
 0 -116.666992188 l 1
 0 716.666992188 l 1
 82.46484375 800 l 1
EndSplineSet
Validated: 524289
EndChar

StartChar: D
Encoding: 68 68 3
Width: 1000
VWidth: 0
HStem: -200 166.667<166.667 500> 633.333 166.667<166.667 500>
VStem: 0 166.667<-33.333 633.333> 500 166.667<-33.333 633.333>
LayerCount: 2
Fore
SplineSet
0 800 m 1
 583.333007812 800 l 1
 666.666992188 716.666992188 l 1
 666.666992188 -116.666992188 l 1
 583.333007812 -200 l 1
 0 -200 l 1
 0 800 l 1
166.666992188 633.333007812 m 1
 166.666992188 -33.3330078125 l 1
 500 -33.3330078125 l 1
 500 633.333007812 l 1
 166.666992188 633.333007812 l 1
EndSplineSet
Validated: 524289
EndChar

StartChar: E
Encoding: 69 69 4
Width: 700
VWidth: 0
Flags: W
HStem: -200 166.667<166.667 583.333> 216.667 166.666<166.667 333.333> 633.333 166.667<166.667 583.333>
VStem: 0 166.667<-33.333 216.667 383.333 633.333>
LayerCount: 2
Fore
SplineSet
0 800 m 1
 583.333007812 800 l 1
 583.333007812 633.333007812 l 1
 166.666992188 633.333007812 l 1
 166.666992188 383.333007812 l 1
 333.333007812 383.333007812 l 1
 333.333007812 216.666992188 l 1
 166.666992188 216.666992188 l 1
 166.666992188 -33.3330078125 l 1
 583.333007812 -33.3330078125 l 1
 583.333007812 -200 l 1
 0 -200 l 1
 0 800 l 1
EndSplineSet
Validated: 524289
EndChar

StartChar: F
Encoding: 70 70 5
Width: 1000
VWidth: 0
HStem: -200 21G<0 166.667> -200 21G<0 166.667> 216.667 166.666<166.667 333.333> 633.333 166.667<166.667 583.333>
VStem: 0 166.667<-200 216.667 383.333 633.333>
LayerCount: 2
Fore
SplineSet
583.333007812 800 m 1xb8
 583.333007812 633.333007812 l 1
 166.666992188 633.333007812 l 1
 166.666992188 383.333007812 l 1
 333.333007812 383.333007812 l 1
 333.333007812 216.666992188 l 1
 166.666992188 216.666992188 l 1
 166.666992188 -200 l 1
 0 -200 l 1
 0 800 l 1
 583.333007812 800 l 1xb8
EndSplineSet
Validated: 524289
EndChar

StartChar: G
Encoding: 71 71 6
Width: 1000
VWidth: 0
HStem: -200 166.667<166.667 500> 216.667 166.666<333.333 500> 633.334 166.667<166.667 500>
VStem: 0 166.667<-33.333 633.334> 500 166.668<-33.333 216.667 550.001 633.334>
LayerCount: 2
Fore
SplineSet
83.3330078125 800.000976562 m 1
 583.333007812 800.000976562 l 1
 666.66796875 716.66796875 l 1
 666.66796875 550.000976562 l 1
 500 550.000976562 l 1
 500 633.333984375 l 1
 166.666992188 633.333984375 l 1
 166.666992188 -33.3330078125 l 1
 500 -33.3330078125 l 1
 500 216.666992188 l 1
 333.333007812 216.666992188 l 1
 333.333007812 383.333007812 l 1
 666.66796875 383.333007812 l 1
 666.66796875 -116.666992188 l 1
 583.333007812 -200 l 1
 83.3330078125 -200 l 1
 0 -116.666992188 l 1
 0 716.66796875 l 1
 83.3330078125 800.000976562 l 1
EndSplineSet
Validated: 524289
EndChar

StartChar: H
Encoding: 72 72 7
Width: 1000
VWidth: 0
HStem: -200 21G<0 166.667 416.667 583.333> -200 21G<0 166.667 416.667 583.333> 216.667 166.666<166.667 416.667> 780 20G<0 166.667 416.667 583.333>
VStem: 0 166.667<-200 216.667 383.333 800> 416.667 166.666<-200 216.667 383.333 800>
LayerCount: 2
Fore
SplineSet
0 800 m 1xbc
 166.666992188 800 l 1
 166.666992188 383.333007812 l 1
 416.666992188 383.333007812 l 1
 416.666992188 800 l 1
 583.333007812 800 l 1
 583.333007812 -200 l 1
 416.666992188 -200 l 1
 416.666992188 216.666992188 l 1
 166.666992188 216.666992188 l 1
 166.666992188 -200 l 1
 0 -200 l 1
 0 800 l 1xbc
EndSplineSet
Validated: 524289
EndChar

StartChar: I
Encoding: 73 73 8
Width: 322
VWidth: 0
Flags: W
HStem: -200 21G<0 166.637> -200 21G<0 166.637> 779.822 20G<0 166.637>
VStem: 0 166.637<-200 799.822>
LayerCount: 2
Fore
SplineSet
166.63671875 799.822265625 m 1xb0
 166.63671875 -200 l 1
 0 -200 l 1
 0 799.822265625 l 1
 166.63671875 799.822265625 l 1xb0
EndSplineSet
Validated: 524289
EndChar

StartChar: J
Encoding: 74 74 9
Width: 1000
VWidth: 0
HStem: -200 166.637<166.637 416.593> 633.185 166.638<0 416.593>
VStem: 0 166.637<-33.3633 49.9551> 416.593 166.64<-33.3633 633.185>
LayerCount: 2
Fore
SplineSet
0 799.822265625 m 1
 583.232421875 799.822265625 l 1
 583.232421875 -116.681640625 l 1
 499.9140625 -200 l 1
 498.608398438 -200 l 1
 83.318359375 -200 l 1
 0 -116.681640625 l 1
 0 49.955078125 l 1
 166.63671875 49.955078125 l 1
 166.63671875 -33.36328125 l 1
 416.592773438 -33.36328125 l 1
 416.592773438 633.184570312 l 1
 0 633.184570312 l 1
 0 799.822265625 l 1
EndSplineSet
Validated: 524289
EndChar

StartChar: K
Encoding: 75 75 10
Width: 1000
VWidth: 0
HStem: -200 21G<0 166.637 416.593 583.229> -200 21G<0 166.637 416.593 583.229> 216.592 166.637<166.637 249.955> 779.822 20G<0 166.637 416.593 583.229>
VStem: 0 166.637<-200 216.592 383.229 799.822> 416.593 166.637<-200 49.9551 549.866 799.822>
LayerCount: 2
Fore
SplineSet
0 799.822265625 m 1xbc
 166.63671875 799.822265625 l 1
 166.63671875 383.228515625 l 1
 249.955078125 383.228515625 l 1
 416.592773438 549.866210938 l 1
 416.592773438 799.822265625 l 1
 583.229492188 799.822265625 l 1
 583.229492188 466.547851562 l 1
 416.592773438 299.911132812 l 1
 583.229492188 133.274414062 l 1
 583.229492188 -200 l 1
 416.592773438 -200 l 1
 416.592773438 49.955078125 l 1
 249.955078125 216.591796875 l 1
 166.63671875 216.591796875 l 1
 166.63671875 -200 l 1
 0 -200 l 1
 0 799.822265625 l 1xbc
EndSplineSet
Validated: 524289
EndChar

StartChar: L
Encoding: 76 76 11
Width: 1000
VWidth: 0
HStem: -200 166.637<166.637 666.548> 779.822 20G<0 166.637>
VStem: 0 166.637<-33.3633 799.822>
LayerCount: 2
Fore
SplineSet
0 799.822265625 m 1
 166.63671875 799.822265625 l 1
 166.63671875 -33.36328125 l 1
 666.547851562 -33.36328125 l 1
 666.547851562 -200 l 1
 499.911132812 -200 l 1
 333.274414062 -200 l 1
 166.63671875 -200 l 1
 0 -200 l 1
 0 799.822265625 l 1
EndSplineSet
Validated: 524289
EndChar

StartChar: M
Encoding: 77 77 12
Width: 1000
VWidth: 0
HStem: -200 21G<0 166.637 244.955 421.593 499.911 666.548> -200 21G<0 166.637 244.955 421.593 499.911 666.548> 779.822 20.1777G<0 171.97 494.578 666.548>
VStem: 0 166.637<-200 799.822> 499.911 166.637<-200 799.822>
LayerCount: 2
Fore
SplineSet
0 799.822265625 m 1xb8
 166.63671875 799.822265625 l 1
 166.63671875 -200 l 1
 0 -200 l 1
 0 799.822265625 l 1xb8
499.911132812 799.822265625 m 1
 666.547851562 799.822265625 l 1
 666.547851562 -200 l 1
 499.911132812 -200 l 1
 499.911132812 799.822265625 l 1
249.955078125 -199.821289062 m 1
 0 800 l 1
 166.63671875 800 l 1
 333.274414062 175.111328125 l 1
 499.911132812 800 l 1
 666.547851562 800 l 1
 416.592773438 -199.821289062 l 1
 249.955078125 -199.821289062 l 1
EndSplineSet
Validated: 524293
EndChar

StartChar: N
Encoding: 78 78 13
Width: 1000
VWidth: 0
HStem: -200 21G<0 166.656 490 666.656> -200 21G<0 166.656 490 666.656> 780 20G<0 176.657 500 666.656>
VStem: 0 166.656<-200 466.688> 500 166.656<133.344 800>
LayerCount: 2
Fore
SplineSet
0 800 m 1xb8
 166.65625 800 l 1
 500 133.34375 l 1
 500 800 l 1
 666.65625 800 l 1
 666.65625 -200 l 1
 500 -200 l 1
 166.65625 466.6875 l 1
 166.65625 -200 l 1
 0 -200 l 1
 0 800 l 1xb8
EndSplineSet
Validated: 524289
EndChar

StartChar: O
Encoding: 79 79 14
Width: 1000
VWidth: 0
HStem: -200 166.637<166.637 499.911> 633.185 166.638<166.637 499.911>
VStem: 0 166.637<-33.3633 633.185> 499.911 166.637<-33.3633 633.185>
LayerCount: 2
Fore
SplineSet
83.318359375 799.822265625 m 1
 583.229492188 799.822265625 l 1
 666.547851562 716.502929688 l 1
 666.547851562 -116.681640625 l 1
 583.229492188 -200 l 1
 83.318359375 -200 l 1
 0 -116.681640625 l 1
 0 716.502929688 l 1
 83.318359375 799.822265625 l 1
166.63671875 633.184570312 m 1
 166.63671875 -33.36328125 l 1
 499.911132812 -33.36328125 l 1
 499.911132812 633.184570312 l 1
 166.63671875 633.184570312 l 1
EndSplineSet
Validated: 524289
EndChar

StartChar: P
Encoding: 80 80 15
Width: 1000
VWidth: 0
HStem: -200 21G<0 166.667> -200 21G<0 166.667> 216.667 166.666<166.667 416.667> 633.333 166.667<166.667 416.667>
VStem: 0 166.667<-200 216.667 383.333 633.333> 416.667 166.666<383.333 633.333>
LayerCount: 2
Fore
SplineSet
0 800 m 1xbc
 500 800 l 1
 583.333007812 716.666992188 l 1
 583.333007812 300 l 1
 500 216.666992188 l 1
 166.666992188 216.666992188 l 1
 166.666992188 -200 l 1
 0 -200 l 1
 0 800 l 1xbc
166.666992188 633.333007812 m 1
 166.666992188 383.333007812 l 1
 416.666992188 383.333007812 l 1
 416.666992188 633.333007812 l 1
 166.666992188 633.333007812 l 1
EndSplineSet
Validated: 524289
EndChar

StartChar: Q
Encoding: 81 81 16
Width: 1000
VWidth: 0
HStem: -200 166.662<166.662 499.986> -200 21G<729.979 749.979> 633.31 166.662<166.662 499.986>
VStem: 0 166.662<-33.3379 633.31> 499.986 166.662<49.9932 49.9932 216.655 633.31>
LayerCount: 2
Fore
SplineSet
83.3310546875 799.971679688 m 1x78
 583.317382812 799.97265625 l 1
 666.6484375 716.641601562 l 1
 666.6484375 49.9931640625 l 1
 749.979492188 -33.337890625 l 1xb8
 749.979492188 -200 l 1
 666.6484375 -116.668945312 l 1
 587.223632812 -200 l 1
 83.3310546875 -200 l 1
 0 -116.668945312 l 1
 0 727.918945312 l 1
 83.3310546875 799.971679688 l 1x78
166.662109375 633.309570312 m 1
 166.662109375 -33.337890625 l 1
 499.986328125 -33.337890625 l 1
 499.986328125 49.9931640625 l 1
 416.655273438 133.32421875 l 1
 416.655273438 299.986328125 l 1
 499.986328125 216.655273438 l 1
 499.986328125 633.309570312 l 1
 166.662109375 633.309570312 l 1
EndSplineSet
Validated: 524289
EndChar

StartChar: R
Encoding: 82 82 17
Width: 1000
VWidth: 0
HStem: -200 21G<0 166.667 416.667 583.333> -200 21G<0 166.667 416.667 583.333> 216.667 166.666<166.667 416.667> 633.333 166.667<166.667 416.667>
VStem: 0 166.667<-200 216.667 383.333 633.333> 416.667 166.666<-200 216.667 383.333 633.333>
LayerCount: 2
Fore
SplineSet
0 800 m 1xbc
 500 800 l 1
 583.333007812 716.666992188 l 1
 583.333007812 383.333007812 l 1
 500 300 l 1
 583.333007812 216.666992188 l 1
 583.333007812 -200 l 1
 416.666992188 -200 l 1
 416.666992188 216.666992188 l 1
 166.666992188 216.666992188 l 1
 166.666992188 -200 l 1
 0 -200 l 1
 0 800 l 1xbc
166.666992188 633.333007812 m 1
 166.666992188 383.333007812 l 1
 416.666992188 383.333007812 l 1
 416.666992188 633.333007812 l 1
 166.666992188 633.333007812 l 1
EndSplineSet
Validated: 524289
EndChar

StartChar: S
Encoding: 83 83 18
Width: 1000
VWidth: 0
HStem: -200 166.667<166.667 583.333> 216.667 166.666<166.667 583.333> 633.333 166.667<166.667 583.333>
VStem: 0 166.667<-33.333 50 383.333 633.333> 583.333 166.667<-33.333 216.667 550 633.333>
LayerCount: 2
Fore
SplineSet
750 550 m 1
 583.333007812 550 l 1
 583.333007812 633.333007812 l 1
 166.666992188 633.333007812 l 1
 166.666992188 383.333007812 l 1
 666.666992188 383.333007812 l 1
 750 300 l 1
 750 -116.666992188 l 1
 666.666992188 -200 l 1
 83.3330078125 -200 l 1
 0 -116.666992188 l 1
 0 50 l 1
 166.666992188 50 l 1
 166.666992188 -33.3330078125 l 1
 583.333007812 -33.3330078125 l 1
 583.333007812 216.666992188 l 1
 83.3330078125 216.666992188 l 1
 0 300 l 1
 0 716.666992188 l 1
 83.3330078125 800 l 1
 666.666992188 800 l 1
 750 716.666992188 l 1
 750 550 l 1
EndSplineSet
Validated: 524289
EndChar

StartChar: T
Encoding: 84 84 19
Width: 1000
VWidth: 0
HStem: -200 21G<250 416.667> -200 21G<250 416.667> 633.333 166.667<0 250 416.667 666.667>
VStem: 250 166.667<-200 633.333>
LayerCount: 2
Fore
SplineSet
666.666992188 633.333007812 m 1xb0
 416.666992188 633.333007812 l 1
 416.666992188 -200 l 1
 250 -200 l 1
 250 633.333007812 l 1
 0 633.333007812 l 1
 0 800 l 1
 666.666992188 800 l 1
 666.666992188 633.333007812 l 1xb0
EndSplineSet
Validated: 524289
EndChar

StartChar: U
Encoding: 85 85 20
Width: 1000
VWidth: 0
HStem: -200 166.667<166.667 500> 780 20G<0 166.667 500 666.667>
VStem: 0 166.667<-33.333 800> 500 166.667<-33.333 800>
LayerCount: 2
Fore
SplineSet
166.666992188 800 m 1
 166.666992188 -33.3330078125 l 1
 500 -33.3330078125 l 1
 500 800 l 1
 666.666992188 800 l 1
 666.666992188 -116.666992188 l 1
 583.333007812 -200 l 1
 83.3330078125 -200 l 1
 0 -116.666992188 l 1
 0 800 l 1
 166.666992188 800 l 1
EndSplineSet
Validated: 524289
EndChar

StartChar: V
Encoding: 86 86 21
Width: 1000
VWidth: 0
HStem: -200 21G<245 421.667> -200 21G<245 421.667> 780 20G<0 172 494.667 666.667>
LayerCount: 2
Fore
SplineSet
250 -200 m 1xa0
 0 800 l 1
 166.666992188 800 l 1
 333.333007812 175 l 1
 500 800 l 1
 666.666992188 800 l 1
 416.666992188 -200 l 1
 250 -200 l 1xa0
EndSplineSet
Validated: 524289
EndChar

StartChar: W
Encoding: 87 87 22
Width: 1000
VWidth: 0
HStem: -200 21G<245 421.667 742.396 919.062> -200 21G<245 421.667 742.396 919.062> 780 20G<0 172.008 497.4 666.671 992.062 1164.06>
LayerCount: 2
Fore
SplineSet
0 800 m 1xa0
 0.0078125 800 l 1
 166.674804688 800 l 1
 333.341796875 175 l 1
 498.706054688 794.791992188 l 1
 497.400390625 800 l 1
 500.00390625 800 l 1
 664.06640625 800 l 1
 666.670898438 800 l 1
 665.365234375 794.791992188 l 1
 830.729492188 175 l 1
 997.395507812 800 l 1
 1164.0625 800 l 1
 914.0625 -200 l 1
 747.395507812 -200 l 1
 582.032226562 461.458007812 l 1
 416.666992188 -200 l 1
 250 -200 l 1
 0 800 l 1xa0
EndSplineSet
Validated: 524293
EndChar

StartChar: X
Encoding: 88 88 23
Width: 1000
VWidth: 0
HStem: -200 21G<0 176.667 490 666.667> -200 21G<0 176.667 490 666.667> 780 20G<0 176.667 490 666.667>
LayerCount: 2
Fore
SplineSet
0 800 m 1xa0
 166.666992188 800 l 1
 333.333007812 466.666992188 l 1
 500 800 l 1
 666.666992188 800 l 1
 416.666992188 300 l 1
 666.666992188 -200 l 1
 500 -200 l 1
 333.333007812 133.333007812 l 1
 166.666992188 -200 l 1
 0 -200 l 1
 250 300 l 1
 0 800 l 1xa0
EndSplineSet
Validated: 524289
EndChar

StartChar: Y
Encoding: 89 89 24
Width: 1000
VWidth: 0
HStem: -200 21G<250 416.667> -200 21G<250 416.667> 780 20G<0 176.667 490 666.667>
VStem: 250 166.667<-200 300>
LayerCount: 2
Fore
SplineSet
0 800 m 1xb0
 166.666992188 800 l 1
 333.333007812 466.666992188 l 1
 500 800 l 1
 666.666992188 800 l 1
 416.666992188 300 l 1
 416.666992188 -200 l 1
 250 -200 l 1
 250 300 l 1
 0 800 l 1xb0
EndSplineSet
Validated: 524289
EndChar

StartChar: Z
Encoding: 90 90 25
Width: 1000
VWidth: 0
HStem: -200 166.667<125 666.667> 633.333 166.667<0 541.667>
LayerCount: 2
Fore
SplineSet
0 800 m 1
 583.333007812 800 l 1
 666.666992188 716.666992188 l 1
 666.666992188 647.22265625 666.666992188 577.77734375 666.666992188 508.333007812 c 1
 125 -33.3330078125 l 1
 666.666992188 -33.3330078125 l 1
 666.666992188 -200 l 1
 83.3330078125 -200 l 1
 0 -116.666992188 l 1
 0 -47.22265625 0 22.22265625 0 91.6669921875 c 1
 541.666992188 633.333007812 l 1
 0 633.333007812 l 1
 0 800 l 1
EndSplineSet
Validated: 524289
EndChar

StartChar: bracketleft
Encoding: 91 91 26
Width: 1000
VWidth: 0
HStem: -200 21G<0 250> -200 21G<0 250> 780 20G<0 250>
VStem: 0 250<-200 -33.333 633.333 800> 0 166.667<-33.333 633.333>
LayerCount: 2
Fore
SplineSet
250 800 m 1xb0
 250 633.333007812 l 1xb0
 166.666992188 633.333007812 l 1
 166.666992188 -33.3330078125 l 1xa8
 250 -33.3330078125 l 1
 250 -200 l 1
 0 -200 l 1
 0 800 l 1
 250 800 l 1xb0
EndSplineSet
Validated: 524289
EndChar

StartChar: bracketright
Encoding: 93 93 27
Width: 1000
VWidth: 0
HStem: -200 21G<0 250> -200 21G<0 250> 780 20G<0 250>
VStem: 0 250<-200 -33.333 633.333 800> 83.333 166.667<-33.333 633.333>
LayerCount: 2
Fore
SplineSet
0 -200 m 1xb0
 0 -33.3330078125 l 1xb0
 83.3330078125 -33.3330078125 l 1
 83.3330078125 633.333007812 l 1xa8
 0 633.333007812 l 1
 0 800 l 1
 250 800 l 1
 250 -200 l 1
 0 -200 l 1xb0
EndSplineSet
Validated: 524289
EndChar

StartChar: guillemotleft
Encoding: 171 171 28
Width: 1000
VWidth: 0
HStem: -200 21G<320 500 570 750> -200 21G<320 500 570 750> 780 20G<320 500 570 750>
LayerCount: 2
Fore
SplineSet
333.333007812 800 m 1xa0
 500 800 l 1
 166.666992188 300 l 1
 500 -200 l 1
 333.333007812 -200 l 1
 0 300 l 1
 333.333007812 800 l 1xa0
583.333007812 800 m 1
 750 800 l 1
 416.666992188 300 l 1
 750 -200 l 1
 583.333007812 -200 l 1
 250 300 l 1
 583.333007812 800 l 1
EndSplineSet
Validated: 524289
EndChar

StartChar: guillemotright
Encoding: 187 187 29
Width: 1000
VWidth: 0
HStem: -200 21G<0 180 250 430> -200 21G<0 180 250 430> 780 20G<0 180 250 430>
LayerCount: 2
Fore
SplineSet
416.666992188 -200 m 1xa0
 250 -200 l 1
 583.333007812 300 l 1
 250 800 l 1
 416.666992188 800 l 1
 750 300 l 1
 416.666992188 -200 l 1xa0
166.666992188 -200 m 1
 0 -200 l 1
 333.333007812 300 l 1
 0 800 l 1
 166.666992188 800 l 1
 500 300 l 1
 166.666992188 -200 l 1
EndSplineSet
Validated: 524289
EndChar

StartChar: period
Encoding: 46 46 30
Width: 1000
VWidth: 0
HStem: -200 166.667<0 166.667>
VStem: 0 166.667<-200 -33.333>
LayerCount: 2
Fore
SplineSet
0 -200 m 1
 0 -33.3330078125 l 1
 166.666992188 -33.3330078125 l 1
 166.666992188 -200 l 1
 0 -200 l 1
EndSplineSet
Validated: 524289
EndChar

StartChar: parenleft
Encoding: 40 40 31
Width: 1000
VWidth: 0
HStem: -200 21G<63.333 250> -200 21G<63.333 250> 780 20G<63.333 250>
VStem: 0 166.667<-33.333 633.333>
LayerCount: 2
Fore
SplineSet
250 800 m 1xb0
 250 716.666992188 l 1
 166.666992188 633.333007812 l 1
 166.666992188 -33.3330078125 l 1
 250 -116.666992188 l 1
 250 -200 l 1
 83.3330078125 -200 l 1
 0 -116.666992188 l 1
 0 633.333007812 l 1
 0 716.666992188 l 1
 83.3330078125 800 l 1
 250 800 l 1xb0
EndSplineSet
Validated: 524289
EndChar

StartChar: parenright
Encoding: 41 41 32
Width: 1000
VWidth: 0
HStem: -200 21G<0 186.667> -200 21G<0 186.667> 780 20G<0 186.667>
VStem: 83.333 166.667<-33.333 633.333>
LayerCount: 2
Fore
SplineSet
0 -200 m 1xb0
 0 -116.666992188 l 1
 83.3330078125 -33.3330078125 l 1
 83.3330078125 633.333007812 l 1
 0 716.666992188 l 1
 0 800 l 1
 166.666992188 800 l 1
 250 716.666992188 l 1
 250 -33.3330078125 l 1
 250 -116.666992188 l 1
 166.666992188 -200 l 1
 0 -200 l 1xb0
EndSplineSet
Validated: 524289
EndChar

StartChar: ampersand
Encoding: 38 38 33
Width: 1000
VWidth: 0
HStem: -200 166.667<166.667 416.667> 216.667 166.666<166.667 500 666.667 833.333> 633.333 166.667<166.667 583.333>
VStem: 0 166.667<-33.333 216.667 383.333 633.333> 500 166.667<-200 216.667>
LayerCount: 2
Fore
SplineSet
0 800 m 1
 83.3330078125 800 l 1
 166.666992188 800 l 1
 583.333007812 800 l 1
 583.333007812 633.333007812 l 1
 166.666992188 633.333007812 l 1
 166.666992188 383.333007812 l 1
 833.333007812 383.333007812 l 1
 833.333007812 216.666992188 l 1
 666.666992188 216.666992188 l 1
 666.666992188 -200 l 1
 500 -200 l 1
 500 216.666992188 l 1
 166.666992188 216.666992188 l 1
 166.666992188 -33.3330078125 l 1
 416.666992188 -33.3330078125 l 1
 416.666992188 -200 l 1
 166.666992188 -200 l 1
 83.3330078125 -200 l 1
 0 -200 l 1
 0 800 l 1
EndSplineSet
Validated: 524289
EndChar

StartChar: Eacute
Encoding: 201 201 34
Width: 1000
VWidth: 0
HStem: -200 166.442<166.442 582.548> 216.105 166.442<166.442 332.885> 632.211 166.442<166.442 582.548> 881.874 83.2207<249.663 332.885>
VStem: 0 166.442<-33.5576 216.105 382.548 632.211>
LayerCount: 2
Fore
SplineSet
0 798.653320312 m 1
 83.220703125 798.653320312 l 1
 166.442382812 798.653320312 l 1
 582.547851562 798.653320312 l 1
 582.547851562 632.2109375 l 1
 166.442382812 632.2109375 l 1
 166.442382812 382.547851562 l 1
 332.884765625 382.547851562 l 1
 332.884765625 216.10546875 l 1
 166.442382812 216.10546875 l 1
 166.442382812 -33.5576171875 l 1
 582.547851562 -33.5576171875 l 1
 582.547851562 -200 l 1
 166.442382812 -200 l 1
 83.220703125 -200 l 1
 0 -200 l 1
 0 798.653320312 l 1
332.884765625 965.094726562 m 1
 416.10546875 881.874023438 l 1
 249.663085938 881.874023438 l 1
 166.442382812 965.094726562 l 1
 332.884765625 965.094726562 l 1
EndSplineSet
Validated: 524289
EndChar

StartChar: Egrave
Encoding: 200 200 35
Width: 1000
VWidth: 0
HStem: -200 166.442<166.442 582.548> 216.105 166.442<166.442 332.885> 632.211 166.442<166.442 582.548> 881.874 83.2207<249.663 332.885>
VStem: 0 166.442<-33.5576 216.105 382.548 632.211>
LayerCount: 2
Fore
SplineSet
0 798.653320312 m 1
 83.220703125 798.653320312 l 1
 166.442382812 798.653320312 l 1
 582.547851562 798.653320312 l 1
 582.547851562 632.2109375 l 1
 166.442382812 632.2109375 l 1
 166.442382812 382.547851562 l 1
 332.884765625 382.547851562 l 1
 332.884765625 216.10546875 l 1
 166.442382812 216.10546875 l 1
 166.442382812 -33.5576171875 l 1
 582.547851562 -33.5576171875 l 1
 582.547851562 -200 l 1
 166.442382812 -200 l 1
 83.220703125 -200 l 1
 0 -200 l 1
 0 798.653320312 l 1
249.663085938 965.094726562 m 1
 416.10546875 965.094726562 l 1
 332.884765625 881.874023438 l 1
 166.442382812 881.874023438 l 1
 249.663085938 965.094726562 l 1
EndSplineSet
Validated: 524289
EndChar

StartChar: Ecircumflex
Encoding: 202 202 36
Width: 1000
VWidth: 0
HStem: -200 166.442<166.442 582.548> 216.105 166.442<166.442 332.885> 632.211 166.442<166.442 582.548> 883.285 83.0225<90.6738 173.695 339.739 422.762>
VStem: 0 166.442<-33.5576 216.105 382.548 632.211>
LayerCount: 2
Fore
SplineSet
0 798.653320312 m 1
 83.220703125 798.653320312 l 1
 166.442382812 798.653320312 l 1
 582.547851562 798.653320312 l 1
 582.547851562 632.2109375 l 1
 166.442382812 632.2109375 l 1
 166.442382812 382.547851562 l 1
 332.884765625 382.547851562 l 1
 332.884765625 216.10546875 l 1
 166.442382812 216.10546875 l 1
 166.442382812 -33.5576171875 l 1
 582.547851562 -33.5576171875 l 1
 582.547851562 -200 l 1
 166.442382812 -200 l 1
 83.220703125 -200 l 1
 0 -200 l 1
 0 798.653320312 l 1
7.6513671875 883.28515625 m 1
 90.673828125 966.307617188 l 1
 422.76171875 966.307617188 l 1
 505.783203125 883.28515625 l 1
 339.739257812 883.28515625 l 1
 256.717773438 966.307617188 l 1
 173.6953125 883.28515625 l 1
 7.6513671875 883.28515625 l 1
EndSplineSet
Validated: 524293
EndChar

StartChar: zero
Encoding: 48 48 37
Width: 1000
VWidth: 0
HStem: -200 166.667<194.444 416.667> 633.333 166.667<166.667 345.486>
VStem: 0 166.667<288.281 633.333> 416.667 166.666<-33.333 395.052>
LayerCount: 2
Fore
SplineSet
83.3330078125 800 m 1
 500 800 l 1
 583.333007812 716.666992188 l 1
 583.333007812 -116.666992188 l 1
 500 -200 l 1
 83.3330078125 -200 l 1
 83.3330078125 -198.263671875 l 1
 0 -116.666992188 l 1
 0 -33.3330078125 l 1
 0 730.555664062 l 1
 83.3330078125 800 l 1
166.666992188 633.333007812 m 1
 166.666992188 288.28125 l 1
 345.486328125 633.333007812 l 1
 166.666992188 633.333007812 l 1
416.666992188 395.051757812 m 1
 194.444335938 -33.3330078125 l 1
 416.666992188 -33.3330078125 l 1
 416.666992188 395.051757812 l 1
EndSplineSet
Validated: 524289
EndChar

StartChar: one
Encoding: 49 49 38
Width: 1000
VWidth: 0
HStem: -200 166.667<0 217.376 362.294 579.67> 780 20G<199.986 362.294>
VStem: 144.918 217.376<550 716.667> 217.376 144.918<-33.333 550>
LayerCount: 2
Fore
SplineSet
217.375976562 800 m 1xd0
 362.293945312 800 l 1
 362.293945312 -33.3330078125 l 1
 579.669921875 -33.3330078125 l 1
 579.669921875 -200 l 1
 362.293945312 -200 l 1
 217.375976562 -200 l 1
 0 -200 l 1
 0 -33.3330078125 l 1
 217.375976562 -33.3330078125 l 1
 217.375976562 550 l 1xd0
 144.91796875 550 l 1
 144.91796875 716.666992188 l 1xe0
 217.375976562 800 l 1xd0
EndSplineSet
Validated: 524289
EndChar

StartChar: two
Encoding: 50 50 39
Width: 1000
VWidth: 0
HStem: -200 166.667<250 666.667> 633.333 166.667<250 500>
LayerCount: 2
Fore
SplineSet
166.666992188 800 m 1
 583.333007812 800 l 1
 666.666992188 716.666992188 l 1
 666.666992188 466.666992188 l 1
 250 -33.3330078125 l 1
 666.666992188 -33.3330078125 l 1
 666.666992188 -200 l 1
 0 -200 l 1
 0 -33.3330078125 l 1
 500 550 l 1
 500 633.333007812 l 1
 250 633.333007812 l 1
 250 550 l 1
 83.3330078125 550 l 1
 83.3330078125 716.666992188 l 1
 166.666992188 800 l 1
EndSplineSet
Validated: 524289
EndChar

StartChar: three
Encoding: 51 51 40
Width: 1000
VWidth: 0
HStem: -200 166.667<166.667 416.667> 633.333 166.667<166.667 416.667>
VStem: 0 166.667<-33.333 50 550 633.333> 333.334 250<216.667 300 383.333 466.667> 416.667 166.667<-33.333 216.667 466.667 633.333>
LayerCount: 2
Fore
SplineSet
0 550 m 1xe8
 0 716.666992188 l 1
 83.333984375 800 l 1
 500 800 l 1
 583.333984375 716.666992188 l 1xe8
 583.333984375 383.333007812 l 1
 500 341.666992188 l 1
 583.333984375 300 l 1xf0
 583.333984375 -116.666992188 l 1
 500 -200 l 1
 83.333984375 -200 l 1
 0 -116.666992188 l 1
 0 50 l 1
 166.666992188 50 l 1
 166.666992188 -33.3330078125 l 1
 416.666992188 -33.3330078125 l 1
 416.666992188 216.666992188 l 1xe8
 333.333984375 216.666992188 l 1
 333.333984375 466.666992188 l 1xf0
 416.666992188 466.666992188 l 1
 416.666992188 633.333007812 l 1
 166.666992188 633.333007812 l 1
 166.666992188 550 l 1
 0 550 l 1xe8
EndSplineSet
Validated: 524289
EndChar

StartChar: four
Encoding: 52 52 41
Width: 1000
VWidth: 0
HStem: -200 21G<333.333 500> -200 21G<333.333 500> 133.334 166.666<166.667 333.333 500 583.333> 780 20G<240 416.667>
VStem: 333.333 166.667<-200 133.334 300 383.333>
LayerCount: 2
Fore
SplineSet
416.666992188 800 m 1xb8
 166.666992188 300 l 1
 333.333007812 300 l 1
 333.333007812 383.333007812 l 1
 500 383.333007812 l 1
 500 300 l 1
 583.333007812 300 l 1
 666.666015625 216.666992188 l 1
 666.666015625 133.333984375 l 1
 500 133.333984375 l 1
 500 -200 l 1
 333.333007812 -200 l 1
 333.333007812 133.333984375 l 1
 83.3330078125 133.333984375 l 1
 0 216.666992188 l 1
 0 300 l 1
 250 800 l 1
 416.666992188 800 l 1xb8
EndSplineSet
Validated: 524289
EndChar

StartChar: five
Encoding: 53 53 42
Width: 1000
VWidth: 0
HStem: -200 166.667<166.667 500> 300 166.667<250 500> 633.333 166.667<250 666.667>
VStem: 83.333 166.667<466.667 633.333> 500 166.667<-33.333 300>
LayerCount: 2
Fore
SplineSet
666.666992188 633.333007812 m 1
 250 633.333007812 l 1
 250 466.666992188 l 1
 583.333007812 466.666992188 l 1
 666.666992188 383.333007812 l 1
 666.666992188 -116.666992188 l 1
 583.333007812 -200 l 1
 83.3330078125 -200 l 1
 -0 -116.666992188 l 1
 -0 50 l 1
 166.666992188 50 l 1
 166.666992188 -33.3330078125 l 1
 500 -33.3330078125 l 1
 500 300 l 1
 166.666992188 300 l 1
 83.3330078125 383.333007812 l 1
 83.3330078125 716.666992188 l 1
 166.666992188 800 l 1
 666.666992188 800 l 1
 666.666992188 633.333007812 l 1
EndSplineSet
Validated: 524289
EndChar

StartChar: six
Encoding: 54 54 43
Width: 1000
VWidth: 0
HStem: -204.34 166.666<165.523 498.857> 295.66 166.666<165.523 498.857> 628.993 166.667<165.523 582.19>
VStem: -1.14258 166.666<-37.6738 295.66 462.326 628.993> 498.857 166.666<-37.6738 295.66>
LayerCount: 2
Fore
SplineSet
82.1904296875 795.66015625 m 1
 582.190429688 795.66015625 l 1
 665.5234375 712.326171875 l 1
 665.5234375 628.993164062 l 1
 165.5234375 628.993164062 l 1
 165.5234375 462.326171875 l 1
 582.190429688 462.326171875 l 1
 665.5234375 355.555664062 l 1
 665.5234375 -121.006835938 l 1
 582.190429688 -200 l 1
 582.190429688 -204.33984375 l 1
 82.1904296875 -204.33984375 l 1
 -1.142578125 -121.006835938 l 1
 -1.142578125 712.326171875 l 1
 82.1904296875 795.66015625 l 1
165.5234375 295.66015625 m 1
 165.5234375 45.66015625 l 1
 165.5234375 -37.673828125 l 1
 498.857421875 -37.673828125 l 1
 498.857421875 295.66015625 l 1
 165.5234375 295.66015625 l 1
EndSplineSet
Validated: 524289
EndChar

StartChar: seven
Encoding: 55 55 44
Width: 1000
VWidth: 0
HStem: -200 21G<41.667 261.111> -200 21G<41.667 261.111> 633.333 166.667<83.333 458.333>
LayerCount: 2
Fore
SplineSet
83.3330078125 800 m 1xa0
 583.333007812 800 l 1
 666.666992188 716.666992188 l 1
 666.666992188 550 l 1
 250 -200 l 1
 41.6669921875 -200 l 1
 458.333007812 550 l 1
 458.333007812 633.333007812 l 1
 0 633.333007812 l 1
 0 716.666992188 l 1
 83.3330078125 800 l 1xa0
EndSplineSet
Validated: 524289
EndChar

StartChar: eight
Encoding: 56 56 45
Width: 1000
VWidth: 0
HStem: -200 166.667<167.917 417.917> 216.667 166.666<251.25 334.583> 633.333 166.667<167.917 417.917>
VStem: 1.25 250<133.333 216.667 383.333 466.667> 1.25 166.667<-33.333 133.333 466.667 633.333> 334.583 250<133.333 216.667 383.333 466.667> 417.917 166.666<-33.333 133.333 466.667 633.333>
CounterMasks: 1 e0
LayerCount: 2
Fore
SplineSet
84.5830078125 800 m 1xe8
 501.25 800 l 1
 584.583007812 716.666992188 l 1xea
 584.583007812 383.333007812 l 1xe4
 501.25 341.666992188 l 1
 584.583007812 300 l 1
 584.583007812 -116.666992188 l 1
 501.25 -200 l 1
 84.5830078125 -200 l 1
 1.25 -116.666992188 l 1
 1.25 300 l 1xea
 84.5830078125 341.666992188 l 1
 1.25 383.333007812 l 1xf0
 1.25 716.666992188 l 1
 84.5830078125 800 l 1xe8
167.916992188 633.333007812 m 1
 167.916992188 466.666992188 l 1xea
 251.25 466.666992188 l 1
 251.25 383.333007812 l 1
 334.583007812 383.333007812 l 1
 334.583007812 466.666992188 l 1xf4
 417.916992188 466.666992188 l 1
 417.916992188 633.333007812 l 1
 167.916992188 633.333007812 l 1
251.25 216.666992188 m 1xf4
 251.25 133.333007812 l 1xf4
 167.916992188 133.333007812 l 1
 167.916992188 -33.3330078125 l 1
 417.916992188 -33.3330078125 l 1
 417.916992188 133.333007812 l 1xea
 334.583007812 133.333007812 l 1
 334.583007812 216.666992188 l 1
 251.25 216.666992188 l 1xf4
EndSplineSet
Validated: 524289
EndChar

StartChar: nine
Encoding: 57 57 46
Width: 1000
VWidth: 0
HStem: -200 166.667<166.667 416.667> 300 166.667<166.667 416.667> 633.333 166.667<166.667 416.667>
VStem: 0 166.667<-33.333 50 466.667 633.333> 416.667 166.666<-33.333 300 466.667 633.333>
LayerCount: 2
Fore
SplineSet
83.3330078125 800 m 1
 500 800 l 1
 583.333007812 716.666992188 l 1
 583.333007812 383.333007812 l 1
 500 341.666992188 l 1
 583.333007812 300 l 1
 583.333007812 -116.666992188 l 1
 500 -200 l 1
 83.3330078125 -200 l 1
 0 -116.666992188 l 1
 0 50 l 1
 166.666992188 50 l 1
 166.666992188 -33.3330078125 l 1
 416.666992188 -33.3330078125 l 1
 416.666992188 300 l 1
 83.3330078125 300 l 1
 0 383.333007812 l 1
 0 716.666992188 l 1
 83.3330078125 800 l 1
166.666992188 633.333007812 m 1
 166.666992188 466.666992188 l 1
 416.666992188 466.666992188 l 1
 416.666992188 633.333007812 l 1
 166.666992188 633.333007812 l 1
EndSplineSet
Validated: 524289
EndChar

StartChar: at
Encoding: 64 64 47
Width: 1000
VWidth: 0
HStem: -200 166.667<416.667 500 750 833.333> 300 166.667<416.667 750> 633.333 166.667<166.667 833.333>
VStem: 0 166.667<133.333 633.333> 250 250<-200 -33.333> 250 166.667<-33.333 300> 583.333 166.667<-33.333 216.667> 833.333 166.667<-33.333 633.333>
LayerCount: 2
Fore
SplineSet
0 800 m 1xf3
 1000 800 l 1
 1000 -200 l 1
 583.333007812 -200 l 1
 583.333007812 216.666992188 l 1
 750 216.666992188 l 1
 750 -33.3330078125 l 1
 833.333007812 -33.3330078125 l 1
 833.333007812 633.333007812 l 1
 166.666992188 633.333007812 l 1
 166.666992188 50 l 1
 83.3330078125 50 l 1
 0 133.333007812 l 1
 0 800 l 1xf3
250 466.666992188 m 1xf7
 750 466.666992188 l 1
 750 300 l 1
 583.333007812 300 l 1
 416.666992188 300 l 1
 416.666992188 -33.3330078125 l 1xf7
 500 -33.3330078125 l 1
 500 -200 l 1
 250 -200 l 1xfb
 250 466.666992188 l 1xf7
EndSplineSet
Validated: 524289
EndChar

StartChar: question
Encoding: 63 63 48
Width: 1000
VWidth: 0
HStem: -200 166.667<250 416.667> 633.333 166.667<166.667 500>
VStem: 250 166.667<-200 -33.333 50 133.333> 500 166.667<300 633.333>
LayerCount: 2
Fore
SplineSet
0 716.666992188 m 1
 83.3330078125 800 l 1
 583.333007812 800 l 1
 666.666992188 716.666992188 l 1
 666.666992188 216.666992188 l 1
 583.333007812 133.333007812 l 1
 416.666992188 133.333007812 l 1
 416.666992188 50 l 1
 250 50 l 1
 250 216.666992188 l 1
 333.333007812 300 l 1
 500 300 l 1
 500 633.333007812 l 1
 166.666992188 633.333007812 l 1
 166.666992188 550 l 1
 0 550 l 1
 0 716.666992188 l 1
250 -33.3330078125 m 1
 416.666992188 -33.3330078125 l 1
 416.666992188 -200 l 1
 250 -200 l 1
 250 -33.3330078125 l 1
EndSplineSet
Validated: 524289
EndChar

StartChar: exclam
Encoding: 33 33 49
Width: 1000
VWidth: 0
HStem: -200 166.667<0 166.667> 780 20G<0 166.667>
VStem: 0 166.667<-200 -33.333 50 800>
LayerCount: 2
Fore
SplineSet
0 800 m 1
 166.666992188 800 l 1
 166.666992188 50 l 1
 0 50 l 1
 0 800 l 1
0 -33.3330078125 m 1
 166.666992188 -33.3330078125 l 1
 166.666992188 -200 l 1
 0 -200 l 1
 0 -33.3330078125 l 1
EndSplineSet
Validated: 524289
EndChar

StartChar: comma
Encoding: 44 44 50
Width: 1000
VWidth: 0
LayerCount: 2
Fore
SplineSet
166.891601562 -30.408203125 m 1
 333.783203125 -30.408203125 l 1
 166.891601562 -364.19140625 l 1
 0 -364.19140625 l 1
 166.891601562 -30.408203125 l 1
EndSplineSet
Validated: 524289
EndChar

StartChar: acute
Encoding: 180 180 51
Width: 1000
VWidth: 0
HStem: 881.874 83.2207<249.663 332.885>
VStem: 166.442 249.663
LayerCount: 2
Fore
SplineSet
249.663085938 965.094726562 m 1
 416.10546875 965.094726562 l 1
 332.884765625 881.874023438 l 1
 166.442382812 881.874023438 l 1
 249.663085938 965.094726562 l 1
EndSplineSet
Validated: 524289
EndChar
